<?xml version="1.0" encoding="utf-8"?>
<!-- Generator: Adobe Illustrator 19.2.1, SVG Export Plug-In . SVG Version: 6.00 Build 0)  -->
<svg version="1.1" id="Layer_4" xmlns="http://www.w3.org/2000/svg" xmlns:xlink="http://www.w3.org/1999/xlink" x="0px" y="0px"
	 viewBox="0 0 1440.2 704" style="enable-background:new 0 0 1440.2 704;" xml:space="preserve">
<style type="text/css">
	.st0{fill:#010000;stroke:#000000;stroke-width:4;stroke-miterlimit:10;}
	.st1{fill:#00A900;stroke:#000000;stroke-width:4;stroke-miterlimit:10;}
	.st2{fill:#010000;}
	.st3{fill:none;stroke:#000000;stroke-miterlimit:10;}
	.st4{fill:#00A900;}
	.st5{fill:#010000;stroke:#010000;stroke-miterlimit:10;}
</style>
<title>android-bg</title>
<polygon class="st0" points="640.3,2 1438.2,2 1438.2,702 642.8,702 "/>
<polyline class="st1" points="642.8,702 2,702 2.2,2 641.8,2 "/>
<path class="st2" d="M432.2,333c10.3-1.7,14.5,8,14.5,8l9,56c0,0-2.5,9-9.5,11s-15.5-5-16.5-9.5s-8-52.5-8-52.5
	S421.9,334.7,432.2,333z"/>
<path class="st2" d="M239.7,304c0,0-1-13.5,10.5-13.5h46c0,0,10.5,1,11,11c0.4,5.7-2.5,11.2-7.5,14l-52.5,0.5
	C240.4,314,239.7,304,239.7,304z"/>
<path class="st2" d="M314.2,296.5l-26.5,76c0,0-3.5,11.5,9,16s15,6.5,15,6.5l-0.5,37c0,0,1,11,14,11s12-17.5,12-17.5V402l17.5,6
	l32.5,35c0,0,11,3,14.5-4.5s4.5-9.5-0.5-18s-8-8-8-8l26-82L314.2,296.5z"/>
<path class="st3" d="M432.2,333"/>
<path class="st2" d="M421.2,326l-107-35c0,0,24-49.5,72.5-30.5c9.8,3.8,17,8.8,22.3,14.2C430.2,296.3,421.2,326,421.2,326z"/>
<path class="st2" d="M421.2,263L409,274.7l-3.8-3.7l13.5-11C418.7,260,424.7,258.5,421.2,263z"/>
<path class="st2" d="M357.2,240.5l2.5,15.5l-4.5,1l-3-15.5C352.2,241.5,353.2,234,357.2,240.5z"/>
<path class="st2" d="M305.2,446c0,0-6.8,2.3-6.5,9c0.2,3.9,2.8,7.3,6.5,8.5l117,0.5c0,0,7.3-2.8,7-10s-7.5-8-7.5-8H305.2z"/>
<circle class="st2" cx="321.5" cy="477.3" r="9.8"/>
<circle class="st2" cx="404.5" cy="476.3" r="9.8"/>
<path class="st3" d="M404.5,476.3"/>
<circle class="st4" cx="399.7" cy="292.5" r="5.6"/>
<circle class="st4" cx="351.7" cy="277" r="5.6"/>
<path class="st2" d="M569.8,326.5c4,8.5-2.8,16-2.8,16l-45.9,23c0,0-8.5-0.1-12.2-6.3s-0.1-16.1,3.5-18.3
	c3.6-2.1,43.1-21.2,43.1-21.2S565.8,318,569.8,326.5z"/>
<path class="st5" d="M571.5,317l70-8.8l0.5,96l-7.5,1l-0.8,25c0,0,0.3,10.8-11.7,10.8s-13.3-8.5-13.3-8.5l-0.3-23
	c0,0-6-0.3-15.5-0.3s-10.3-8.3-10.3-8.3L571.5,317z"/>
<path class="st5" d="M641.7,304.5l0.5-47.5c-17.1-4.2-32.1-2.7-44.3,5.8l-11-14.5c-2.4-0.9-4.1-0.7-4.3,2L594,265
	c-16.1,13-24.7,28.7-22.5,48.3L641.7,304.5z"/>
<circle class="st4" cx="600.5" cy="285.8" r="5.6"/>
<path class="st4" d="M641.5,308.3l41.1-4.6l10,87.7c-0.3,4.3-6.3,7.9-13,8.7h-9l0.3,31c0,0-4.3,10.7-13,10.7S645.6,431,645.6,431
	l-0.7-27l-2.9,0.3L641.5,308.3z"/>
<path class="st4" d="M641.7,304.5l41.5-3.8c-5.2-22.3-17.1-35.2-33.3-42l6.7-16.3c-0.3-2.6-1.7-3.1-4.3-1.3l-7,17.7l-3-1.7
	L641.7,304.5z"/>
<circle class="st2" cx="650.2" cy="279.7" r="5.6"/>
<path class="st4" d="M734.4,244c8.9,5.6,5.7,15.6,5.7,15.6L710,307.7c0,0-7.8,5.1-14.4,2s-8.4-14-6.2-18s28.6-44.8,28.6-44.8
	S725.5,238.4,734.4,244z"/>
<path class="st2" d="M642,444.8l-40-0.3c-4.1,1.4-6.8,5.2-6.8,9.5c1.3,7.8,6.3,8.5,6.3,8.5h40.3L642,444.8z"/>
<circle class="st2" cx="617.2" cy="475" r="9.8"/>
<circle class="st4" cx="701.2" cy="475.5" r="9.8"/>
<path class="st4" d="M642,444.8l76.3,0.5c6,2.1,8,5,7.8,8.8c-0.5,4.8-2.7,7.7-6.5,8.8l-77.8-0.3L642,444.8z"/>
</svg>
