<svg id="Layer_1" data-name="Layer 1" xmlns="http://www.w3.org/2000/svg" viewBox="0 0 622 302"><defs><style>.cls-1{fill:#0f7390;}.cls-1,.cls-10,.cls-8,.cls-9{stroke:#eba687;stroke-width:2px;}.cls-1,.cls-8,.cls-9{stroke-miterlimit:10;}.cls-2{fill:#41c2ba;}.cls-2,.cls-3,.cls-4,.cls-5{stroke:#0b0f1c;stroke-width:3px;}.cls-10,.cls-2,.cls-3,.cls-4,.cls-5{stroke-linecap:round;stroke-linejoin:round;}.cls-3,.cls-7,.cls-9{fill:#eba687;}.cls-10,.cls-11,.cls-4,.cls-8{fill:none;}.cls-5{fill:#2a2a2b;}.cls-6{fill:#239e92;}.cls-8{stroke-dasharray:10;}.cls-12{fill:#00979c;}</style></defs><title>arduino-bg</title><path id="Layer_1-2" data-name="Layer 1" class="cls-1" d="M0,0H620V300H0V0Z" transform="translate(1 1)"/><g id="Layer_2" data-name="Layer 2"><path class="cls-2" d="M246,101.9H384.7v89H246v-89Z" transform="translate(1 1)"/><rect class="cls-3" x="313.8" y="121.9" width="62.1" height="41.1"/><line class="cls-4" x1="377" y1="112.5" x2="314" y2="112.5"/><line class="cls-4" x1="298" y1="112.5" x2="256" y2="112.5"/><line class="cls-4" x1="377" y1="181.5" x2="314" y2="181.5"/><rect class="cls-3" x="236.5" y="121.9" width="29.4" height="23.8"/><path class="cls-3" d="M259.3,169.1v12H235.5v-12h23.8Z" transform="translate(1 1)"/><path class="cls-5" d="M275.4,154.9h14.2v14.2H275.4V154.9Z" transform="translate(1 1)"/><path class="cls-6" d="M319.5,127.5h28v28h-28v-28Z" transform="translate(1 1)"/></g><path class="cls-7" d="M517.5,27l-5.7,21.5a3.12,3.12,0,0,0,.5,2.5,3,3,0,0,0,2.3,1.1H520L493.7,85.2l5.6-21a2.78,2.78,0,0,0-.5-2.5,3,3,0,0,0-2.3-1.1h-5.3L517.5,27m2.4-5.9a0.87,0.87,0,0,0-.7.4l-31,39.6a0.93,0.93,0,0,0,.7,1.5h7.5a0.94,0.94,0,0,1,.9,1.1l-7,26.1a0.86,0.86,0,0,0,.9,1.1,1.08,1.08,0,0,0,.7-0.3l31-39a0.93,0.93,0,0,0-.7-1.5h-7.7a0.94,0.94,0,0,1-.9-1.1l7.1-26.7a0.82,0.82,0,0,0-.8-1.2h0Zm17.3,87a4.88,4.88,0,0,1,4,2.1l38,56.8a4.83,4.83,0,0,1-1.3,6.7L546,195.1a5,5,0,0,1-2.7.8,4.88,4.88,0,0,1-4-2.1l-38-56.8a4.83,4.83,0,0,1,1.3-6.7l31.9-21.4a5,5,0,0,1,2.7-.8m0-2a6.82,6.82,0,0,0-3.8,1.2l-31.9,21.4a6.88,6.88,0,0,0-1.9,9.5l38,56.8a6.73,6.73,0,0,0,5.7,3,6.82,6.82,0,0,0,3.8-1.2L579,175.4a6.88,6.88,0,0,0,1.9-9.5l-38-56.8a7,7,0,0,0-5.7-3h0Z" transform="translate(1 1)"/><path class="cls-7" d="M536.5,115.7l31.1,46.4-28.8,19.3-31-46.4,28.7-19.3m0.6-2.8L505,134.4l33.3,49.8,32.1-21.5Zm21,64a2.43,2.43,0,0,1,1.8.9,2.22,2.22,0,0,1,.3,1.6,2.16,2.16,0,0,1-.9,1.4,2.84,2.84,0,0,1-1.2.4,2.43,2.43,0,0,1-1.8-.9,2.13,2.13,0,0,1,.6-3,1.92,1.92,0,0,1,1.2-.4m0-2a3.89,3.89,0,0,0-2.3.7,4.1,4.1,0,0,0,2.3,7.5,3.89,3.89,0,0,0,2.3-.7A4.1,4.1,0,0,0,558.1,174.9Z" transform="translate(1 1)"/><path class="cls-8" d="M100.6,151.1a64.3,64.3,0,1,1-64.3,64.3" transform="translate(1 1)"/><path class="cls-7" d="M51.3,172.5c1.3,2.2,3.5,10.4,1.2,16.6-3.4,9-6.1,12.3-7,13.2H44.4a10.71,10.71,0,0,1-4.1-.7,13.21,13.21,0,0,1-4.3-3c-0.1-1.3,0-5.7,3.5-14.7,2.2-6.1,9.3-10.6,11.8-11.4m-4,15.1a4.83,4.83,0,0,0,4.4-6.8,4.45,4.45,0,0,0-2.7-2.5,4.67,4.67,0,0,0-1.7-.3,4.83,4.83,0,0,0-4.4,6.8,4.45,4.45,0,0,0,2.7,2.5,4.67,4.67,0,0,0,1.7.3m-15.1.6a42,42,0,0,0-1.3,5.4,9,9,0,0,0-2.2.6,21.1,21.1,0,0,1,3.5-6m22,10.2a23.78,23.78,0,0,1-1.3,4.9,8.34,8.34,0,0,0-.8-1.2,22.17,22.17,0,0,0,2.1-3.7m-2.4-28c-2.3,0-11.5,5.3-14.3,12.9-4.6,12.1-3.5,16.3-3.5,16.3a16,16,0,0,0,5.5,4,15.59,15.59,0,0,0,6.7.7s3.4-2.3,8-14.4c3-7.9-.6-18.8-2.2-19.4C52,170.4,51.9,170.4,51.8,170.4Zm-4.5,15.2a3.55,3.55,0,0,1-1-.2,2.77,2.77,0,0,1-1.6-3.6,2.8,2.8,0,0,1,2.6-1.8,3.55,3.55,0,0,1,1,.2,2.77,2.77,0,0,1,1.6,3.6A2.67,2.67,0,0,1,47.3,185.6Zm-11.8-1.2a8.56,8.56,0,0,0-4.7,2.3c-3.3,3.2-5.5,11.2-5.5,11.2s3.9-2.4,6.6-2.5h0.7A70.16,70.16,0,0,1,35.5,184.4Zm19.3,7.8a60.78,60.78,0,0,1-5.1,10.1c1.9,1.9,3.2,6.2,3.2,6.2s3.6-7.4,3.3-12A6.69,6.69,0,0,0,54.8,192.2Zm-19,10.9,0.9,6.8,5-4.4a13.43,13.43,0,0,1-2.7-.7,10.86,10.86,0,0,1-3.2-1.7h0Z" transform="translate(1 1)"/><path class="cls-7" d="M164.2,83.5a8.61,8.61,0,0,1,3.8.7,7.17,7.17,0,0,1,4.1,3.9,12.36,12.36,0,0,1,.4,7l-0.1.5c-0.8,4.9-.8,8.3.1,10.5l0.2,0.4-8.1,3.2-0.2-.4c-0.9-2.2-3.2-4.7-7.1-7.7l-0.4-.3a12.71,12.71,0,0,1-4.5-5.4,7.21,7.21,0,0,1,.4-5.7c0.9-2.1,3.5-4.5,6.3-5.7l0.1-.1,0.1-.1a14,14,0,0,1,4.9-.8m0-2a16.54,16.54,0,0,0-5.4.9,1118000,1118000,0,0,0-.4.2c-3.3,1.5-6.3,4.2-7.4,6.7a9.39,9.39,0,0,0-.4,7.3,14.9,14.9,0,0,0,5.5,6.5c2.6,2,5.6,4.6,6.5,6.9l0.9,2.2,11.8-4.6-0.9-2.2c-0.9-2.2-.5-6.1,0-9.4a14.87,14.87,0,0,0-.4-8.5,9.6,9.6,0,0,0-5.2-5.1,9.72,9.72,0,0,0-4.6-.9h0Zm10.9,28-10.2,4a1.07,1.07,0,0,0-.6,1.5,1.27,1.27,0,0,0,1.4.7,1.26,1.26,0,0,0-.1,1.2,1.18,1.18,0,0,0,1.4.8l0.2-.1a1.1,1.1,0,0,0,0,.8,1,1,0,0,0,1.2.6l0.3-.1,3.1,2.5,3.8-1.5,0.6-3.9,0.3-.1a0.88,0.88,0,0,0,.5-1.2,1,1,0,0,0-.5-0.6l0.2-.1a1.1,1.1,0,0,0,.5-1.5,1.42,1.42,0,0,0-.9-0.8,1.05,1.05,0,0,0,.5-1.4C176.3,109.5,175.6,109.2,175.1,109.5Z" transform="translate(1 1)"/><path class="cls-9" d="M155.4,74.4l-2.7-6.8m-10,25-7.3-.3M177,79.1l5.1-5.2m-36.4,7.7-6-4.3m27.6-4.2,1.4-7.2" transform="translate(1 1)"/><path class="cls-7" d="M73.4,27.1c0.3,0.1,1.2.5,1.8,0.8l0.4,0.2,1.2,0.6A5.66,5.66,0,0,1,76,31L63.8,54.4a2,2,0,0,0-.1,1.5,2.34,2.34,0,0,0,1,1.2l0.7,0.3a1.49,1.49,0,0,0,.9.2,2.11,2.11,0,0,0,1.8-1.1l4.2-8.1a2.24,2.24,0,0,1,1.9-1.2,3,3,0,0,1,1,.2,2.37,2.37,0,0,1,1.1,1.3,2.19,2.19,0,0,1-.1,1.6L72,58.4a2,2,0,0,0-.1,1.5,2.34,2.34,0,0,0,1,1.2l0.7,0.4a1.49,1.49,0,0,0,.9.2,2.11,2.11,0,0,0,1.8-1.1l2.8-5.3A2.24,2.24,0,0,1,81,54.1a3,3,0,0,1,1,.2,2.09,2.09,0,0,1,.9,2.9l-2.8,5.3A2,2,0,0,0,80,64a2.34,2.34,0,0,0,1,1.2l0.7,0.4a1.49,1.49,0,0,0,.9.2,2.11,2.11,0,0,0,1.8-1.1l0.2-.3,0.8-1.6a2.37,2.37,0,0,1,1.3-1.1,1.27,1.27,0,0,1,.6-0.1,1.93,1.93,0,0,1,1,.3,2.37,2.37,0,0,1,1.1,1.3,2.5,2.5,0,0,1-.1,1.7l-0.8,1.6-3,5.8-4.6,8.9-1.8,3.4L75,92.3a4.49,4.49,0,0,1-3.6,2.3,1.85,1.85,0,0,0-1.7,1.1l-2.5,4.7H67.1a0.2,0.2,0,0,1-.2-0.1L46.2,89.5a0.28,0.28,0,0,1-.2-0.2l2.2-4.2a2.13,2.13,0,0,0-.4-2.4,4.14,4.14,0,0,1-1.3-3.9V78.4L46.3,54.5A2.69,2.69,0,0,1,49,51.8a2.75,2.75,0,0,1,2.8,2.7v5.3a1.93,1.93,0,0,0,1.5,1.9c0.2,0,.3.1,0.5,0.1a2.11,2.11,0,0,0,1.8-1.1L72.1,29a5.9,5.9,0,0,1,1.3-1.9m-0.1-2c-1,0-1.9.8-3,3L53.9,59.8V54.5a4.66,4.66,0,0,0-2.6-4.2,4.42,4.42,0,0,0-2.2-.5,4.78,4.78,0,0,0-4.8,4.8l0.2,23.9a6.23,6.23,0,0,0,2,5.8l-2.2,4.2a2.26,2.26,0,0,0,1.1,2.9L66,102.1a2.66,2.66,0,0,0,1.2.3,1.89,1.89,0,0,0,1.8-1.1l2.5-4.8a6.33,6.33,0,0,0,5.3-3.3l3.9-7.4,1.8-3.4,4.6-8.9,3-5.8,0.8-1.6a4.42,4.42,0,0,0,.3-3.2,3.85,3.85,0,0,0-2.1-2.4,4.49,4.49,0,0,0-1.9-.5,5,5,0,0,0-1.2.2,4.3,4.3,0,0,0-2.5,2.1l-0.8,1.6-0.2.3-0.7-.4,2.8-5.3a4.07,4.07,0,0,0-1.8-5.6,4.49,4.49,0,0,0-1.9-.5,4.13,4.13,0,0,0-3.7,2.2l-2.8,5.3-0.7-.4,4.2-8.1a4.07,4.07,0,0,0-1.8-5.6,4.49,4.49,0,0,0-1.9-.5,4.13,4.13,0,0,0-3.7,2.2l-4.2,8.1-0.7-.3L77.7,32c1.4-2.6,1.4-4.2.1-4.9l-1.3-.7C75.1,25.7,74.2,25.1,73.3,25.1Zm369.4,178a3.55,3.55,0,0,1,1,.2l64.1,24.6a2.73,2.73,0,0,1,1.5,1.3,2.26,2.26,0,0,1,.1,1.8l-16.6,43.3-68.9-26.5,16.6-43.3a2.35,2.35,0,0,1,2.2-1.4m0-2a4.2,4.2,0,0,0-4.1,2.8L421.3,249l72.6,27.9,17.3-45.2a4.41,4.41,0,0,0-2.7-5.7l-64.1-24.6a4.67,4.67,0,0,0-1.7-.3h0Z" transform="translate(1 1)"/><path class="cls-7" d="M445.2,209.2l57.4,22.1L488,269.5l-57.4-22.1,14.6-38.2m-1.1-2.5L428,248.6l61.2,23.5,16.1-41.9-61.2-23.5h0Z" transform="translate(1 1)"/><path class="cls-7" d="M459.2,221.5l24.7,9.5-1.9,4.9-24.7-9.5,1.9-4.9M458,219l-3.3,8.6,28.4,10.9,3.3-8.6Zm-4.5,11.9,28.3,10.9-2.3,6-28.3-10.9,2.3-6m-1.1-2.6-3.7,9.7,32,12.3,3.7-9.7Zm-1.3,14.4,24.7,9.5-1.9,4.9-24.7-9.5,1.9-4.9m-1.2-2.6-3.3,8.6L475,259.6l3.3-8.6Z" transform="translate(1 1)"/><path class="cls-7" d="M413.2,247.1l87.9,33.8-0.8,2.2-87.9-33.8,0.8-2.2m-1.1-2.6-2.3,5.9,91.6,35.2,2.3-5.9-91.6-35.2h0Z" transform="translate(1 1)"/><path class="cls-7" d="M451.2,144.8a4.76,4.76,0,0,0-3.4,1.4l-12.9-7a3.75,3.75,0,0,0,.1-1.1,4.1,4.1,0,0,0-.1-1.1l12.9-7a4.81,4.81,0,1,0-1.4-3.4c0,0.4.1,0.7,0.1,1.1l-12.9,7a4.8,4.8,0,1,0,0,6.8l12.9,7a3.4,3.4,0,0,0-.1,1,4.7,4.7,0,0,0,9.4,0,4.55,4.55,0,0,0-4.6-4.7h0Z" transform="translate(1 1)"/><path class="cls-7" d="M222.4,222.9l28,28c3.3,3.3,0,6.6,0,6.6l-13.2,13.2a4.49,4.49,0,0,1-3.2,1.5,5.12,5.12,0,0,1-3.4-1.5l-28-28V222.9h19.8m-9.8,14.5a4.7,4.7,0,1,0-3.3-1.4,4.32,4.32,0,0,0,3.3,1.4m9.8-16.5H202.6a2,2,0,0,0-2,2v19.8a2,2,0,0,0,.6,1.4l28,28a7.31,7.31,0,0,0,4.8,2,6.63,6.63,0,0,0,4.6-2l13.2-13.2a7.34,7.34,0,0,0,1.7-2.8,6.21,6.21,0,0,0-1.7-6.6l-28-28a1.68,1.68,0,0,0-1.4-.6h0Zm-9.8,14.5a2.7,2.7,0,1,1,2.7-2.7,2.73,2.73,0,0,1-.8,1.9A2.5,2.5,0,0,1,212.6,235.4Z" transform="translate(1 1)"/><path class="cls-7" d="M364.9,233.4s-13.9,2.9-16.9,4.2c-6.2,2.9-10.3,6.8-11.2,11.3a19.69,19.69,0,0,0-4.6,1.3,30.11,30.11,0,0,0-5,2.2c-3.6-2.8-9.3-3.3-15.9-1.5-3.2.8-15.7,7.5-15.7,7.5l2,5.3,2.8,1.2a16.81,16.81,0,0,0,1.1,4.7c2.9,8.1,10.8,11.9,19.4,7.9,8.1-3.7,11.7-10.9,10.1-18.6a15.46,15.46,0,0,0-.7-2.3,8.28,8.28,0,0,1,3.1-1.9,11.23,11.23,0,0,1,3.5-.7,11.46,11.46,0,0,0,1,2.3c3.7,7,11.1,10.2,19.7,7.8,9.1-2.5,12.8-10.5,9.8-18.5a17.37,17.37,0,0,0-2.2-4.3l1.4-2.7-1.7-5.2h0Zm-35.1,26.2c1.4,6.9-1.9,13.7-9.2,17-7.7,3.5-15.4,0-17.9-7.2-2.8-7.8.6-14.7,9.2-17C320.9,250,328.2,252.1,329.8,259.6Zm27.5,3.7c-7.7,2.1-14.6-.9-17.9-7.2-3.6-6.8.7-13,9.2-17,8-3.8,15.1-.7,17.9,7.2,2.6,7.2-1.1,14.7-9.2,17h0Z" transform="translate(1 1)"/><path class="cls-7" d="M567.7,54v2a13.53,13.53,0,0,1,9.7,4,13.82,13.82,0,0,1,0,19.4,13.76,13.76,0,0,1-19.4,0A13.82,13.82,0,0,1,558,60a13.53,13.53,0,0,1,9.7-4V54m13.2,28.9,3.6,3.6,1.4,1.4,1.4-1.4,7.7,7.7L592.2,97l-7.7-7.7,1.4-1.4-1.4-1.4-3.6-3.6M567.7,51.8a17.8,17.8,0,1,0,11.1,31.7l4.3,4.3-0.9.9a0.56,0.56,0,0,0,0,.9l9.6,9.6a0.76,0.76,0,0,0,.5.2,1.06,1.06,0,0,0,.5-0.2l4.7-4.7a0.56,0.56,0,0,0,0-.9L587.9,84a0.76,0.76,0,0,0-.5-0.2,1.06,1.06,0,0,0-.5.2l-0.9.9-4.3-4.3a17.91,17.91,0,0,0-1.3-23.8,19,19,0,0,0-12.7-5h0Zm0,34.6a16.5,16.5,0,0,1-11.8-4.9,16.72,16.72,0,0,1,0-23.6,16.66,16.66,0,0,1,23.6,0A16.7,16.7,0,0,1,567.7,86.4Zm0-32.4a15.59,15.59,0,0,0-11.1,4.6,15.75,15.75,0,0,0,0,22.2,15.69,15.69,0,0,0,22.2,0,15.75,15.75,0,0,0,0-22.2A15.43,15.43,0,0,0,567.7,54Z" transform="translate(1 1)"/><path class="cls-10" d="M572.1,227.6c-1.9,4.3-.9,7.9,2.7,10.7M564.6,241c1.5-4.2.6-7.8-2.7-10.7l-0.3-.3c-3.5-2.7-4.4-6.3-2.7-10.7m-4.4,29.2,35.5-9.1,0.2,0.9,6.4,24.9c0.7,2.9-.3,4.6-3.2,5.4l-27,6.9c-2.9.7-4.6-.3-5.4-3.2l-6.5-25.8,1.2,4.9a5.27,5.27,0,0,0-1.2.3,9.26,9.26,0,0,0-6,4.4,9.16,9.16,0,0,0-1,7.4,9.4,9.4,0,0,0,4.5,6,9.16,9.16,0,0,0,7.4,1c0.2-.1.4-0.1,0.6-0.2m40.3,1.8-37.7,9.7" transform="translate(1 1)"/><path class="cls-7" d="M445.5,21.1a3.85,3.85,0,0,0-2.4.8,0.38,0.38,0,0,0-.2.2L415.7,49.3a2.52,2.52,0,0,0-.7,1.2l3.7,0.1,29.1-29.1A11.13,11.13,0,0,0,445.5,21.1Zm5.2,4.5a0.38,0.38,0,0,1,.2.2c2.8,2.6,3.6,5.4,2.9,6.3l-0.1.1a0.53,0.53,0,0,0-.2.3l-0.1.1L428.9,57V56.1a2.05,2.05,0,0,0-2-2h-4V53.4l27.8-27.8m-0.2-2.7L420.9,52.5l-0.1,3.6h6.1l-0.1,5.6a3,3,0,0,0,.7-0.5L454.8,34a1.38,1.38,0,0,0,.3-0.4c0.1,0,.1-0.1.2-0.1,1.8-1.9.4-6-3-9.1-0.6-.6-1.2-1-1.8-1.5h0ZM413.4,57.1l-1.7,7.8,7.7-1.5A9.24,9.24,0,0,0,413.4,57.1Z" transform="translate(1 1)"/><path class="cls-7" d="M219.4,57.9a21.11,21.11,0,1,1,28.4-9.2A21.12,21.12,0,0,1,219.4,57.9Zm18-35.2a18.36,18.36,0,1,0,8,24.7A18.4,18.4,0,0,0,237.4,22.7Z" transform="translate(1 1)"/><path class="cls-11" d="M210.9,36.7a18.29,18.29,0,0,0,30.7,15.7c-4.9-2.1-10.2-4.6-15.6-7.4s-10.6-5.6-15.1-8.3h0Zm35.3,14.7c8.3,3.3,13.9,4.8,15.7,4.6-0.7-1.2-3.8-4.4-12.9-10.1a17.8,17.8,0,0,1-1.2,2.9A26.31,26.31,0,0,1,246.2,51.4Zm-8.8-28.7a18.4,18.4,0,0,0-24.7,8,19.78,19.78,0,0,0-1.2,3.1c4.4,2.7,9.7,5.7,15.8,8.8s11.6,5.7,16.3,7.7a16.65,16.65,0,0,0,1.8-2.8,18.52,18.52,0,0,0-8-24.8h0Zm-25.5,4.1c-10-4-14.4-4.7-15.7-4.5,0.9,1.6,5.3,5.3,12.9,10.1a17.8,17.8,0,0,1,1.2-2.9A12,12,0,0,1,211.9,26.8Z" transform="translate(1 1)"/><path class="cls-7" d="M196.1,22.3c1.4-.1,5.8.5,15.7,4.5,0.6-.8,1.2-1.5,1.8-2.2-18.3-7.5-19.7-4.7-20.2-3.7-0.8,1.5-.3,3.9,8.8,10.3,1.8,1.3,3.9,2.6,6.1,4a28.64,28.64,0,0,1,.7-2.8c-7.5-4.9-12-8.5-12.9-10.1h0Zm15.4,11.5a13.56,13.56,0,0,0-.6,2.9c4.6,2.7,9.7,5.6,15.1,8.4s10.7,5.3,15.6,7.4a20.89,20.89,0,0,0,2-2.2c-4.8-2-10.3-4.5-16.3-7.7S215.9,36.5,211.5,33.8ZM249.8,43a28.64,28.64,0,0,1-.7,2.8c9.1,5.7,12.2,8.9,12.9,10.1-1.8.2-7.4-1.2-15.7-4.6-0.6.8-1.2,1.5-1.8,2.2,2.4,1,4.7,1.9,6.8,2.6,10.5,3.7,12.7,2.6,13.5,1.1,0.4-1,1.8-3.7-15-14.2h0Z" transform="translate(1 1)"/><path class="cls-10" d="M365.4,60.4a11.48,11.48,0,0,0,1.9.1,14.77,14.77,0,0,0,2.1-.1,11.68,11.68,0,0,0,6.7-3.4,11.5,11.5,0,0,0,0-16.9,12.07,12.07,0,0,0-8.7-3.4h-1.3V36.2a10.82,10.82,0,0,0-3.5-8.1,5.72,5.72,0,0,0-.8-0.7,12.24,12.24,0,0,0-15.9.7c-0.6.6-1.1,1.2-1.6,1.8a9.38,9.38,0,0,0-1.6,4,9.25,9.25,0,0,0-2.9-.4,10,10,0,0,0-6.9,2.6,8.63,8.63,0,0,0-2.6,5.3h-0.7a10.16,10.16,0,0,0-4.9,1.2,8.34,8.34,0,0,0-2.1,1.6,9.07,9.07,0,0,0-2.8,6.7,9.29,9.29,0,0,0,2.8,6.7,9.58,9.58,0,0,0,7,2.8h35.8Z" transform="translate(1 1)"/><path class="cls-7" d="M97.4,229.1V218.2h7.2v10.9h9.1V214.6h5.4L101,198.4,82.9,214.7h5.4v14.5l9.1-.1h0Z" transform="translate(1 1)"/><path class="cls-12" d="M353.3,143.9l-0.9,3h0.7l0.2-.6h0.9l0.2,0.6h0.8l-0.9-3h-1Zm0.1,1.9,0.3-.9,0.3,0.9h-0.6Zm3.5-.3h0a0.53,0.53,0,0,1,.3-0.2,0.38,0.38,0,0,1,.2-0.2c0-.1.1-0.2,0.1-0.3a0.48,0.48,0,0,0-.1-0.4c-0.1-.1-0.1-0.2-0.2-0.3a0.48,0.48,0,0,0-.4-0.1h-1.4v3h0.7v-1.2h0a0.2,0.2,0,0,1,.2.1c0.1,0,.1.1,0.1,0.2l0.4,1h0.8l-0.5-1.1a4.71,4.71,0,0,1-.2-0.5h0Zm-0.3-.5-0.1.1a0.35,0.35,0,0,1-.2.1H356v-0.6h0.2a0.48,0.48,0,0,1,.4.1c0.1,0,.1.1,0.1,0.2s-0.1,0-.1.1h0Zm3.1-.7a2.19,2.19,0,0,0-.5-0.3,1.27,1.27,0,0,0-.6-0.1h-1v3h0.8a1.48,1.48,0,0,0,.7-0.1,1.2,1.2,0,0,0,.8-0.8,1.27,1.27,0,0,0,.1-0.6,1.48,1.48,0,0,0-.1-0.7C360,144.5,359.9,144.4,359.7,144.3Zm-0.6,1.8a0.85,0.85,0,0,1-.6.2h-0.2v-1.8h0.2a0.6,0.6,0,0,1,.4.1,0.22,0.22,0,0,1,.2.2,0.37,0.37,0,0,1,.1.3v0.4a0.45,0.45,0,0,1-.1.6h0Zm2.8-.3v0.3a0.2,0.2,0,0,1-.1.2l-0.1.1h-0.4a0.1,0.1,0,0,1-.1-0.1,0.35,0.35,0,0,1-.1-0.2v-2.2h-0.7v2a0.48,0.48,0,0,0,.1.4,0.76,0.76,0,0,0,.2.4,0.52,0.52,0,0,0,.4.2,4.33,4.33,0,0,0,.5.1,0.9,0.9,0,0,0,.5-0.1c0.1-.1.3-0.1,0.4-0.2a0.52,0.52,0,0,0,.2-0.4,0.75,0.75,0,0,0,.1-0.5v-1.9h-0.7v1.9m0.9-1.3h0.7v1.8H363v0.6h2v-0.6h-0.7v-1.8H365v-0.6h-2v0.6m4,1.1-0.8-1.7h-0.8v3h0.7v-1.8l0.8,1.8h0.8v-3H367v1.7m3.1-1.3a1,1,0,0,0-.9-0.4,0.9,0.9,0,0,0-.5.1,1.38,1.38,0,0,0-.4.3,2.19,2.19,0,0,0-.3.5,1.48,1.48,0,0,0-.1.7,1.61,1.61,0,0,0,.3,1.1,1,1,0,0,0,.9.4,0.9,0.9,0,0,0,.5-0.1,1.38,1.38,0,0,0,.4-0.3,2.19,2.19,0,0,0,.3-0.5,1.48,1.48,0,0,0,.1-0.7,1.61,1.61,0,0,0-.3-1.1h0Zm-0.5,1.5c0,0.1-.1.2-0.1,0.3a0.38,0.38,0,0,1-.2.2c-0.1,0-.1.1-0.2,0.1a0.52,0.52,0,0,1-.4-0.2,1.48,1.48,0,0,1-.1-0.7v-0.4c0-.1.1-0.2,0.1-0.3a0.38,0.38,0,0,1,.2-0.2c0.1,0,.1-0.1.2-0.1a0.52,0.52,0,0,1,.4.2,1.48,1.48,0,0,1,.1.7v0.4h0Zm-0.3-10.7h0.1v0.3h0.1v-0.3h0.1V135l-0.3.1h0m0.7-.1-0.1.3-0.1-.3h-0.1v0.4h0.1v-0.3l0.1,0.3H370l0.1-.3v0.3h0.1V135H370m-4.2,8.2a4.23,4.23,0,0,1-3-1.2,11.51,11.51,0,0,1-1.4-1.7A7.46,7.46,0,0,1,360,142a4.6,4.6,0,0,1-7.7-3.1,4.42,4.42,0,0,1,4.4-4.3,4.84,4.84,0,0,1,3.4,1.3,4.43,4.43,0,0,1,1.2,1.5l1.2-1.5a4.84,4.84,0,0,1,3.4-1.3,4.35,4.35,0,0,1,4.4,4.3,4.49,4.49,0,0,1-4.4,4.3h-0.1Zm-3.5-4.3a8,8,0,0,0,1.5,2,2.86,2.86,0,0,0,2.2.8h0a2.82,2.82,0,0,0,2.9-2.8,2.88,2.88,0,0,0-2.9-2.8,3.58,3.58,0,0,0-2.4.9,12.74,12.74,0,0,0-1.3,1.9h0Zm-5.5-2.7a2.82,2.82,0,0,0-2.9,2.8,2.88,2.88,0,0,0,2.9,2.8h0a2.86,2.86,0,0,0,2.2-.8,8,8,0,0,0,1.5-2,6.23,6.23,0,0,0-1.4-1.8,2.9,2.9,0,0,0-2.3-1h0Z" transform="translate(1 1)"/><path class="cls-12" d="M313.6,128.5v-2.4h-2.5v2.4h-2.4V131h2.4v2.4h2.5V131H316v-2.5h-2.4m-31.7,0h8v2.6h-8v-2.6Z" transform="translate(1 1)"/></svg>