<svg id="Layer_1" data-name="Layer 1" xmlns="http://www.w3.org/2000/svg" viewBox="0 0 1424.33 703.2"><defs><style>.cls-1{fill:#f56700;}.cls-1,.cls-3{stroke:#fff;stroke-miterlimit:10;stroke-width:3px;}.cls-2{fill:#f56b07;}.cls-3{fill:#fff;}</style></defs><title>dropping-bg</title><path class="cls-1" d="M1.5,1.56L1.83,701.7h1421V1.56C1398.73,1.31,16.39,2,1.5,1.56Zm489.6,142.2c1-.41,2.25-0.42,3-1.07,1.46-1.3,3-.87,4.46-1l0.54,1c-1.47,1-3,2-4.42,3.12-4.56,3.31-9.79,5.65-14.17,9.11-4.76,3.78-9.91,7-14.54,11-3,2.56-5.66,5.39-8.66,7.89a37.2,37.2,0,0,0-9,11.28c-3.31,6.31-4.7,12.82-1.7,20.31,2.85,7,7.08,12.85,11.19,18.85,2,3,4.53,5.67,5.93,9,1.16,2.86,2.6,5.79,2.16,9.11a14.55,14.55,0,0,0,0,3.49c0.68,6.11-2,11.26-5.47,15.69a67.81,67.81,0,0,1-16.51,15.24,3.29,3.29,0,0,1-1,0c0.16-1.07,0-2.37.52-3,4.8-5.48,5-12.12,4.26-18.66a23.39,23.39,0,0,0-4.9-10.91,31.36,31.36,0,0,0-3.56-4.5c-4.42-4.05-7.11-9.39-10-14.39-2.5-4.34-4.47-9.29-4.41-14.65,0-1.88.66-3.91-.91-5.63a1.88,1.88,0,0,1,.11-1.85c1.3-1.08.82-2.44,0.82-3.69,0-5.2,2.27-9.64,4.78-14,4-6.92,9.85-12.2,15.63-17.45A75.37,75.37,0,0,1,458,159.19c5.33-3.12,11.1-5.69,16.43-8.56s11.09-4.59,16.65-6.87h0ZM374,193.76a13.19,13.19,0,0,1,1.4-4.89c3.1-6.8,6.89-13.19,12.37-18.36,2.56-2.45,4.49-5.68,8-7.1,2.51-3.73,6.41-6,9.81-8.73,5.84-4.75,11.21-10,17.68-14a55,55,0,0,0,6.62-5.52,162.23,162.23,0,0,0,14.34-13.46c4.55-5.08,8.37-10.81,12.45-16.3,1.29-1.74,1.17-4.07,2.7-5.93,1.15-1.39,1.58-3.62,2.37-5.46,0.7-1.5.4-3.32,1-5.09,1-2.79,1-6,1.13-9a76.57,76.57,0,0,0,0-9.49c-0.13-1.83-1.64-3.48-.42-5.83a6.79,6.79,0,0,1,1.46,1.2,29.82,29.82,0,0,1,1.42,2.88,39.78,39.78,0,0,1,4.58,17.63c0.36,10.88-2.85,20.77-8,30.19A104,104,0,0,1,453.17,131c-6.36,8-14.06,14.81-21.19,22.11a28.74,28.74,0,0,1-5.24,4.23c-3.71,2.33-6.6,5.62-10.1,8.18-4.87,3.57-8.28,8.59-12.61,12.72-3.88,3.69-10,14.64-10.88,19.92-0.8,5.1-2.91,10.35-.29,15.58-0.39,4.58,2.22,8.43,3.3,12.65,0.7,2.75,2.89,5.12,4.45,7.63a11.83,11.83,0,0,1,1.22,1.5c2.1,5.39,6.26,9.41,9.26,14.18,2,3.26,4.83,6.18,5.77,10.09h1.78l0.22,3c-2.38-.06-3.08-1.19-3-3a3.67,3.67,0,0,1-1.41,0c-2.55-3.84-7.8-4.87-9.55-9.45-3.81-1.1-4.59-5.17-7.29-7.43a57.78,57.78,0,0,1-12.75-15.64c-3.63-2.48-4.31-6.94-6.78-10.24-1.75-2.35-2.2-5.71-3.13-8.65-1.55-4.81-1.11-9.71-1-14.55h0v0ZM313.84,289.5l4.42-4.41c8.57-3.25,16.39-7.33,25.33-9.53s17.69-4.54,27-4.34c-2.69,1.11-5.24,2.54-8.11,3.23S356.72,276,354,277c-4.63,1.6-9.31,3.6-13.14,7v4.52c2.34,2.11,5.23,2.74,8.15,3.35,4.19,0.89,8.58.46,12.67,2a2.22,2.22,0,0,0,1,0c5.57-.68,10.87,1,16.57,1s11.48,0.71,17-.16c9.07-1.41,18.13.1,27.07-1,5.57-.69,11.14-0.17,16.57-1,3.72-.58,7.49-0.27,11.07-1,3.08-.64,6.18-0.28,9.08-1,3.08-.76,6.17-0.32,9.08-1,2.7-.63,5.68-0.06,8-1.06,2.67-1.18,5.34.25,7.57-1s4.83,0,6.83-1.75c0.63-.54,2.13-0.08,3.74-0.08a8.26,8.26,0,0,1-3.84,4.11c-4.58,2.47-9.12,4.8-14.47,4.89-1.71,1.71-4,.26-5.93,1.35s-3.93.1-5.72,0.7c-4.65,1.56-9.73.93-14.27,2.93a3.19,3.19,0,0,1-1,0c-5.31.33-10.78,0.15-16,1.15-5.73,1.13-11.51,0-17.07,1-5.1.93-9.94,0.72-15.1,0.81s-10.33,0-15.49,0c-5.49,0-11,.11-16.49,0-6.2-.12-12.38-0.81-18.56-1.21a89.09,89.09,0,0,1-15.16-1.83c-5.45-1.34-11.09-1.94-16.33-4a48.64,48.64,0,0,1-6-3.42V289.5h0Zm63.45,76c1.87,0.31,3.76.86,5.58,1s3.85-.47,5.45.14c3.2,1.24,6.5.35,9.6,1,9,1.86,18.07.5,27.07,0.86,2.18,0.08,4.38-.68,6.58-0.92,2-.25,4.2.42,6.11-1,0.47-.32,1.34,0,2-0.06,2.08-.23,4.31.68,6.23-0.6,1.68-1.12,4,.71,5.42-1.38,3.77,0.77,7.27-1.38,10.27-1h0c2.75,1.34,5.06,2.42,7,3.34s3.73,1.83,5.82,2.81,4.2,1.93,6.65,3.06a18.92,18.92,0,0,1-6.87,3.81,35.09,35.09,0,0,1-6.32,1.06c-3.76,1.23-6.39,2.09-9,3-5.82,2-12.07,1.8-17.82,4a2.8,2.8,0,0,1-1,0c-7.21-.14-14.31,1.56-21.56,1.06-4.33-.3-8.68.08-13-0.09a102.44,102.44,0,0,1-13.6-1.14c-1.86-.36-3.77-0.56-5.58-1a24.86,24.86,0,0,0-5.6-1c-0.7,0-1.36-.71-2.09-0.93a72.46,72.46,0,0,0-8.94-2.49c-2.93-.48-4.59-3-7.53-3.6s-4-3.68-6.34-5.26v-6c4.79-5.13,6.19-5.94,11.72-6.58v3c2.67,3.33,6.07,4.38,9.75,4.89h0v0Zm87.82-27.72c-6.08.76-12.12,2.22-18.28,2.76-2.52,1.78-5.44.46-8.07,1.06-6,1.37-12.13.09-18,1.14s-11.75.6-17.61,0.73c-3.35.11-6.59-.73-10.08-0.89s-7,.12-10.49-0.09a45,45,0,0,1-6.47-1.23c-0.91-.19-1.87-0.82-2.69-0.65-2.54.57-4.62-1.17-7.09-1s-4.53-1.17-6.78-1.7a36.17,36.17,0,0,1-6.59-2.25,22.09,22.09,0,0,1-9-6.66c-0.91-4,1.81-6.37,4.72-8.53s6-4.3,10.43-5l-1.27,4.75c1.07,5,5.25,6.31,9.36,7.31a50.56,50.56,0,0,0,12.55,1.17c3,0,5.92.73,9.08,0.89s6.47-.56,9.47.16c7.2,1.72,14.42.5,21.61,0.81,2.17,0.1,4.26-.72,6.58-0.9s4.85,0.52,7-.18c2.75-.9,5.48-0.24,8.09-1s5.12-.45,7.61-0.92c6.22-1.16,12.55-1.77,18.72-3.1a40.93,40.93,0,0,1,6.41-.85h0c3.56,3.34,7.94,5.13,11.62,7.5-0.45,3.18-3.57,1.66-4.57,3.45-5.63.06-10.74,2.51-16.26,3.24h0v0ZM310.78,519.31c0.38,4.48.08,9,.08,13.48,0,4.68-.17,9.34,0,14,0.15,4.2.89,8.39,0.89,12.58,0,3.69-.73,7.25-0.89,11.08s0.47,7.75-.16,11.47c-0.86,4.84-1.5,9.84-3.86,14.34a16.12,16.12,0,0,1-2.12,3.11c-1.61,1.8-3.15,3.64-4.67,5.53-2.9,3.61-7.19,5.65-11.19,7.82-2,1-4,2.65-6.25,2l-7-8.21c1.64-1.53,3.32-2.89,5-4.33,4.59-4,9.21-8.11,10.74-14.46a16.92,16.92,0,0,1,1.53-3V470.5l2.17-3.63H310.5l1.32,1.38v2c0,11.82-.13,23.65.07,35.47C312,510.31,310.38,514.7,310.78,519.31Zm9.06-102.61a4.53,4.53,0,0,0-1.47,0c-2-.35-4,0.53-6.18-0.85-1.57-1-4,.26-6.08-1-1.62-1-4.2.6-6-1.14-5.91.21-11-2.06-16.16-5.48-1.21-1.51-1.22-3.74-1.07-6,5.06-5.47,7.7-7.68,20.34-12.47,3.77-3.06,8.86-2.59,13-4.78,1-.55,2.6-0.06,3.89-0.25a18.91,18.91,0,0,0,3.59-1c3.78-1.37,7.7-.91,11.65-1l1.34,1.47a1.42,1.42,0,0,1-.5.53c-3.22.69-6.63,0.9-9.63,2.11-6.72,2.71-14.37,3.55-19.61,9.29v4.38c3.11,2.44,6.9,3,10.37,4.22a84.35,84.35,0,0,0,13.25,3c4.55,0.87,9.08,1.48,13.66,2.09,3.39,0.45,6.92,0,10.07.92,4.61,1.34,9.17.11,13.61,0.93,9.18,1.7,18.48,0,27.57,1.12a78.45,78.45,0,0,0,18.59.62c9.89-1.08,19.8,0,29.58-1,5.58-.6,11.14-0.06,16.58-0.92,4.72-.7,9.48-0.22,14.07-1,3.23-.55,6.46-0.34,9.6-0.89,5.53-.93,11.18-1,16.66-2,5.74-1.06,11.66-1.47,17.22-3.06,5.76-1.66,11.71-2.85,17.23-5.42,2.84-1.32,4.32-3.94,6.72-5.72l0.3-5.48,3.81,3.15c0.22,3.91-.68,6.66-4.42,8.83-5.72,3.31-11.73,6.69-18.86,8.83a87.15,87.15,0,0,1-12.72,3.17c-2.84.41-5.7,1.49-8.58,2.18-1.42.34-2.83,0.34-4.2,0.64s-2.75,1-4.08.91c-1.73-.11-3,1-4.59,1.09-1.41.15-3-.49-4.11,1a2.26,2.26,0,0,1-1,0c-3.87.33-7.82,0.25-11.56,1.12-3.4.76-6.86,0.24-10.08,1-3.59.87-7.19,0.23-10.59,1-6.21,1.39-12.52,0-18.59,1-7.73,1.32-15.28.68-23.11,0.82s-15.67-.2-23.49.14c-4,.17-7.76-1.25-11.59-1.13s-7.8.66-11.46-.14c-4.62-1-9.09-.55-13.62-0.87-2.09-.2-4-0.74-6.09-1s-4.23.49-6.11-1a4.27,4.27,0,0,0-1.47,0c-2.69-.44-5.39.59-8.18-0.79C325.17,416.76,322.17,418.41,319.84,416.7Zm73,165.92a4.66,4.66,0,0,1-.27,1h-12.4L378.62,576c-1-.71-2-0.3-3.21.58-3.16,2.23-6.1,4.85-9.9,6.23-2.22.77-4.41,1.39-6.67,2-3.22.89-6.4,0.71-9.61,0.89-6.26.35-11.63-2.26-16.86-5.14-1.13-.62-1.64-2.28-2.53-3.39a17.83,17.83,0,0,1-4-11.85c0-2.34-.06-4.67,0-7,0.19-6.81,3.5-12.08,8.39-16.49a41.87,41.87,0,0,1,4.56-3.09,4.48,4.48,0,0,0,2-.5,8.34,8.34,0,0,1,3.38-1.66,138.25,138.25,0,0,1,13.67-3.1c5.87-.91,11.71-0.31,18-0.91a99.33,99.33,0,0,1,.15-10.12c0.19-2.37-.8-4.37-1.47-6.43a7.54,7.54,0,0,0-4.41-4.64c-3.21-1.41-6.29-2.87-9.93-2.61a57.43,57.43,0,0,1-7,0c-3.46-.18-11.93,1.61-17.84,4a6.66,6.66,0,0,1-1.92,0c-2.52-2.53-2.59-6-2.46-10,2.22-.88,4.55-2.32,7.06-2.88a99.16,99.16,0,0,0,11.28-3,1,1,0,0,1,.45-0.11c4.77,0.67,9.35-1.51,14.08-1,2.2,0.19,4.27,1.07,6.59,1a14.27,14.27,0,0,1,6,1c4.74,2.13,9.55,4.28,12.46,9a23.51,23.51,0,0,1,2.44,4c0.69,1.85,1.59,3.71,1.59,5.85v66h-0.07v0Zm84.86-74.36c-1.43.93-.65,2.41-0.93,3.62s-0.83,2.37-1,3.59c-0.83,6.06-2.84,11.84-4.18,17.78a78.75,78.75,0,0,1-3,10.24c-1.63,4.35-2.57,8.9-4.33,13.19-2.28,5.55-4.47,11.14-6.73,16.7-0.87,2.13-1.94,4.19-2.76,6.35a7.58,7.58,0,0,1-5.59,5.11c-2.2-.94-4.37-2-6.72-0.42a2.72,2.72,0,0,1-2.36.16c-2.83-1.47-5.79-.72-9-1l-3.24-9.48a8,8,0,0,0-2.08-6c0.08-3.89-2.15-7.13-3-10.75-1.41-6-3.8-11.76-5.55-17.69-2.62-8.88-4.93-17.87-8.39-26.5-0.74-1.91-.14-4.52-1.27-5.91-1.4-1.73.08-3.89-1.7-5.43-0.64-.58-0.1-2.52-0.1-4h17c0.87,1.92,2.6,4.08,2.87,6.4,0.34,2.89,1.56,5.41,2.17,8.15,1.32,5.9,3.58,11.53,5.2,17.36a92.48,92.48,0,0,0,3.93,12.3c1.8,4.2,2.3,8.68,3.8,12.92a86.36,86.36,0,0,1,2.27,9.56c1.81,0.33,2.37-.67,2.81-2,1.89-5.71,4.31-11.3,5.58-17.14,1.06-4.89,2.75-9.57,3.62-14.57,0.74-4.24,2.33-8.4,2.88-12.75,1.58-1.29.6-3.08,0.91-4.62,0.3-1.38.73-2.72,1-4.09,0.55-2.83,1.31-5.58,1.09-8.58-0.07-.92.81-1.94,1.29-3H478.5c1.36,3.67-.53,7-0.71,10.5H477.7Zm78.14,75.16H543.1l-1.53-7.52c-1.26-.6-2.27-0.21-3.36.79-2.4,2.3-9.66,6.63-12.4,7.41-1.51.43-3.17,0.36-4.69,0.76-5.94,1.57-14.87.9-20.18-1.59-0.81-.34-1.73-0.57-3-1-1.2-1.25-2.67-2.81-4.28-4.25a14.51,14.51,0,0,1-4.82-11.51V554.56a36.27,36.27,0,0,0,2.54-5c1.52-4.62,5-7.46,8.89-9.62,3.16-1.78,6.16-4.41,10.16-4.41,0.37,0,.8-0.88,1.11-0.82,2.18,0.41,4.09-.8,6.09-1,6.51-.58,13-1.4,19.57-1a11.5,11.5,0,0,0,1.64-.16c0-4,.16-8,0-12.07-0.31-6.18-6.23-11.73-12.49-11.84-4.35-.08-8.75-0.47-13,0.1-5,.68-10.22,1.35-14.9,3.75a6.59,6.59,0,0,1-1.86.21c-2.87-2.6-2.84-6.14-2.66-10,2.45-1.08,4.79-2.44,7.3-3a26.71,26.71,0,0,0,5.76-1.82c1.77-.84,4,0.76,5.52-1.24,0.25-.27,1.28,0,1.94,0,2.87-.21,5.71.26,8.64-0.82a6.54,6.54,0,0,1,6.14.58c0.67,0.48,1.88.23,2.88,0.23,8.44,0,15,3.78,20.29,10.09a6.9,6.9,0,0,1,1.42,2.89c0.85,4,2.12,7.89,2.12,12.15-0.2,20.48-.1,41-0.1,61.65h0Zm3.23-168.53a42.32,42.32,0,0,1-16.51,10.76c-3,1-5.39,3-8.57,3.5-3.68.57-7.27,1.74-10.91,2.57-1.84.42-4,.22-5.51,1.13-1.76,1-3.79.14-5.06,1-1.67,1.09-3.13.59-4.67,0.88-1.21.27-2.37,0.74-3.59,1s-2.7-.55-3.7.76a1.41,1.41,0,0,1-.88.24c-4,.38-8.08.82-12.08,1-2.59.14-4.88,1.44-7.59,1.14-2.33-.26-4.88-0.74-7.1.87a3.32,3.32,0,0,1-1.48,0c-7.52.37-15.08,0.87-22.58,1s-15,0-22.5,0c-6.84,0-13.67.16-20.5,0-8.69-.21-17.42-0.26-26.06-1.15-3.7-.38-7.39-0.68-11.1-0.87a27.57,27.57,0,0,1-4.09-1c-1.38-.29-2.91.55-4.2-0.83-0.38-.43-1.58-0.24-2.38-0.16-3,.31-5.55-0.93-8.17-2-3.91.38-7.38-1.2-10.93-2.51,3.73-.1,7.68-2,10.93,1.51a15.18,15.18,0,0,1,3.52-.81c1,0,2.09.82,3.09,0.89,6.52,0.36,13.06.59,19.58,1,9.18,0.54,18.25,1.2,27.58,1s18.67,0,28-.09c3.7-.06,7.26-0.7,11.09-0.92s7.81,0.6,11.46-.22a51.5,51.5,0,0,1,10.62-.79c2,0,3.49-1.46,5.6-1.12,1.66,0.27,3.56.59,5.12-.86,0.4-.29,1.33,0,2,0a50.76,50.76,0,0,0,14.17-2c3.07-.79,6.53-0.3,9.53-1.19,4.39-1.28,9.14-.69,13.29-2.89,9.24-.91,17.93-4,26.57-7.08,6.09-2.22,12.21-4.44,17.59-8.22a4.41,4.41,0,0,1,1.71-.67,6.8,6.8,0,0,1,1.79.27c-1.08,1.8-1.82,3.61-3.08,4.86h0Zm-0.86-107c-0.43.56-.34,1.52-0.52,2.45h0.07c-2.46,2.46-5,5.15-7.63,7.58a63.81,63.81,0,0,1-11.41,8.59,113.76,113.76,0,0,1-18.88,8.79,20.27,20.27,0,0,0-2.5,1.26h-5.79a17,17,0,0,1,2.29-2.25c3-1.91,6.14-3.62,9.14-5.62a59.56,59.56,0,0,0,6.41-5c2-1.88,3.85-4.12,6-5.94a41.52,41.52,0,0,0,9-11.29,24.1,24.1,0,0,0,3.48-11.54c0-4.54-.48-8.78-3-12.78-2.35-3.76-7.71-7.82-11-9.55-3.73-2-7.41-1.83-11.24-1.83h-7.76l5.45-2.83a77.35,77.35,0,0,1,8-1.17c2.82-.15,5.66,0,8.49,0a22.1,22.1,0,0,1,8.53,2.19A31.5,31.5,0,0,1,560,281.51c0.92,1.46,2.14,2.87,1.72,4.76-0.3,1.45.92,2.4,1,3.59,0.47,6.49-.4,12.69-4.53,18.07h0v0Z" transform="translate(0 0)"/><path class="cls-2" d="M529.17,545c3.31-1.57,3.36-1.56,5.89.23v21.25c-2.41,1.72-4.63,3.53-7.07,5-4.85,2.88-12.86,4.56-17.7,2.47-4.14-1.79-6.77-3.63-8.08-7.64a17.42,17.42,0,0,1-1-6.06,21.41,21.41,0,0,1,1.45-6.36c1.37-3.69,4.6-5.52,8-7a21.14,21.14,0,0,1,10.68-2,3.73,3.73,0,0,0,1.79-.46A5.49,5.49,0,0,1,529.17,545Z" transform="translate(0 0)"/><path class="cls-2" d="M339.17,554.33c2.52-2.29,3.13-5.86,6.59-6.59,1.48-2.77,4.76-1.36,6.77-2.91,5.87,0.15,11.62-1.7,17.52-1a5.54,5.54,0,0,1,.89.25l1.15,1.15v21.36c-3,1.51-5.25,4.29-8.63,5.55-4.5,1.68-9,3.26-13.82,2.57a12.29,12.29,0,0,1-6.8-2.74,13.17,13.17,0,0,1-3.65-7c-0.59-2.54-1.63-5-.07-7.68C339.5,556.6,339.17,555.39,339.17,554.33Z" transform="translate(0 0)"/><polygon class="cls-3" points="798.09 1.6 798.09 701.7 1422.83 701.7 1422.83 1.56 798.09 1.6"/></svg>