<svg id="Layer_4" data-name="Layer 4" xmlns="http://www.w3.org/2000/svg" viewBox="0 0 1440.24 704"><defs><style>.cls-1,.cls-3{fill:#a9aaab;}.cls-1,.cls-2{stroke:#a9aaab;stroke-width:4px;}.cls-1,.cls-2,.cls-4{stroke-miterlimit:10;}.cls-2,.cls-5{fill:#fd4557;}.cls-4{fill:none;stroke:#000;}</style></defs><title>poling-bg</title><polygon class="cls-1" points="640.25 2 1438.24 2 1438.24 702 642.75 702 640.25 2"/><polyline class="cls-2" points="642.75 702 2 702 2.24 2 641.75 2"/><path class="cls-3" d="M432.24,333c10.33-1.67,14.5,8,14.5,8l9,56s-2.5,9-9.5,11-15.5-5-16.5-9.5-8-52.5-8-52.5S421.91,334.67,432.24,333Z" transform="translate(0)"/><path class="cls-3" d="M239.74,304s-1-13.5,10.5-13.5h46s10.5,1,11,11a14.93,14.93,0,0,1-7.5,14l-52.5.5C240.41,314,239.74,304,239.74,304Z" transform="translate(0)"/><path class="cls-3" d="M314.24,296.5l-26.5,76s-3.5,11.5,9,16,15,6.5,15,6.5l-0.5,37s1,11,14,11,12-17.5,12-17.5V402l17.5,6,32.5,35s11,3,14.5-4.5,4.5-9.5-.5-18-8-8-8-8l26-82Z" transform="translate(0)"/><path class="cls-4" d="M432.24,333" transform="translate(0)"/><path class="cls-3" d="M421.24,326l-107-35s24-49.5,72.5-30.5c9.75,3.82,17,8.75,22.3,14.2C430.18,296.32,421.24,326,421.24,326Z" transform="translate(0)"/><path class="cls-3" d="M421.24,263L409,274.7l-3.8-3.7,13.5-11S424.74,258.5,421.24,263Z" transform="translate(0)"/><path class="cls-3" d="M357.24,240.5l2.5,15.5-4.5,1-3-15.5S353.24,234,357.24,240.5Z" transform="translate(0)"/><path class="cls-3" d="M305.24,446s-6.83,2.33-6.5,9a9.52,9.52,0,0,0,6.5,8.5l117,0.5s7.33-2.83,7-10-7.5-8-7.5-8H305.24Z" transform="translate(0)"/><circle class="cls-3" cx="321.49" cy="477.25" r="9.75"/><circle class="cls-3" cx="404.49" cy="476.25" r="9.75"/><path class="cls-4" d="M404.49,476.25" transform="translate(0)"/><circle class="cls-5" cx="399.74" cy="292.5" r="5.6"/><circle class="cls-5" cx="351.74" cy="277" r="5.6"/><path class="cls-3" d="M569.76,326.49c4,8.51-2.79,16-2.79,16l-45.88,23s-8.5-.08-12.23-6.27-0.09-16.14,3.51-18.26,43.14-21.18,43.14-21.18S565.78,318,569.76,326.49Z" transform="translate(0)"/><path class="cls-3" d="M571.49,317l70-8.75,0.5,96-7.5,1-0.75,25S634,441,622,441s-13.25-8.5-13.25-8.5l-0.25-23s-6-.25-15.5-0.25S582.74,401,582.74,401Z" transform="translate(0)"/><path class="cls-3" d="M641.74,304.5l0.5-47.5c-17.14-4.16-32.06-2.69-44.25,5.75l-11-14.5c-2.41-.94-4.12-0.74-4.25,2L594,265c-16.13,13-24.67,28.66-22.5,48.25Z" transform="translate(0)"/><circle class="cls-5" cx="600.49" cy="285.75" r="5.6"/><path class="cls-5" d="M641.49,308.25l41.08-4.58,10,87.67c-0.33,4.33-6.28,7.88-13,8.67h-9l0.33,31s-4.33,10.67-13,10.67S645.57,431,645.57,431l-0.67-27-2.92.25Z" transform="translate(0)"/><path class="cls-5" d="M641.74,304.5l41.5-3.83c-5.19-22.33-17.09-35.22-33.33-42l6.67-16.33c-0.3-2.61-1.7-3.13-4.33-1.33l-7,17.67-3-1.68Z" transform="translate(0)"/><circle class="cls-3" cx="650.24" cy="279.67" r="5.6"/><path class="cls-5" d="M734.43,244c8.88,5.55,5.65,15.57,5.65,15.57L710,307.66s-7.81,5.13-14.39,2-8.38-14-6.17-18S718,246.87,718,246.87,725.55,238.43,734.43,244Z" transform="translate(0)"/><path class="cls-3" d="M642,444.75l-40-.25a9.89,9.89,0,0,0-6.75,9.5c1.25,7.75,6.25,8.5,6.25,8.5h40.25Z" transform="translate(0)"/><circle class="cls-3" cx="617.24" cy="475" r="9.75"/><circle class="cls-5" cx="701.24" cy="475.5" r="9.75"/><path class="cls-5" d="M642,444.75l76.25,0.5c6,2.08,8,5,7.75,8.75-0.52,4.8-2.7,7.69-6.5,8.75l-77.75-.25Z" transform="translate(0)"/></svg>