<svg id="logo" xmlns="http://www.w3.org/2000/svg" viewBox="0 0 272.56 397.34"><defs><style>.cls-1{fill:#fadbd8;}</style></defs><title>spanion-logo</title><polygon class="cls-1" points="56 191.17 1 191.17 191.78 0 191.78 55.34 56 191.17"/><polygon class="cls-1" points="232.67 152.11 271.56 191.17 1.44 191.17 40.57 151.96 232.67 152.11"/><polygon class="cls-1" points="217.56 205.17 272.56 205.17 81.78 396.34 81.78 341 217.56 205.17"/><polygon class="cls-1" points="40.89 244.23 2 205.17 272.12 205.17 232.99 244.38 40.89 244.23"/><polygon points="55 192.17 0 192.17 190.78 1 190.78 56.34 55 192.17"/><polygon points="231.67 153.11 270.56 192.17 0.44 192.17 39.57 152.96 231.67 153.11"/><polygon points="216.56 206.17 271.56 206.17 80.78 397.34 80.78 342 216.56 206.17"/><polygon points="39.89 245.23 1 206.17 271.12 206.17 231.99 245.38 39.89 245.23"/></svg>